<?xml version="1.0" standalone="no"?>
<!DOCTYPE svg PUBLIC "-//W3C//DTD SVG 20010904//EN"
 "http://www.w3.org/TR/2001/REC-SVG-20010904/DTD/svg10.dtd">
<svg version="1.0" xmlns="http://www.w3.org/2000/svg"
 width="363.000000pt" height="328.000000pt" viewBox="0 0 363.000000 328.000000"
 preserveAspectRatio="xMidYMid meet">

<g transform="translate(0.000000,328.000000) scale(0.100000,-0.100000)"
fill="#000000" stroke="none">
<path d="M1210 2993 c-11 -25 -20 -48 -20 -50 0 -3 -12 -35 -26 -71 -24 -62
-53 -136 -117 -302 -14 -36 -42 -107 -61 -157 -87 -224 -110 -285 -156 -403
-27 -69 -65 -168 -85 -220 -20 -52 -61 -158 -91 -235 -121 -308 -157 -403
-181 -465 -14 -36 -40 -103 -58 -150 -19 -47 -50 -128 -70 -180 -80 -207 -160
-316 -269 -366 -52 -24 -56 -28 -56 -59 l0 -34 232 2 c128 1 292 0 363 -2
l130 -4 0 39 0 39 -78 7 c-97 9 -174 42 -212 92 -34 44 -44 134 -25 228 12 64
63 219 120 363 17 44 40 103 50 130 10 28 25 67 34 88 l16 37 467 -2 466 -3
74 -195 c146 -389 197 -536 201 -587 4 -50 3 -55 -34 -92 -33 -32 -49 -40
-105 -50 -36 -6 -82 -11 -102 -11 l-37 0 0 -46 0 -46 68 9 c77 9 919 8 958 -1
24 -6 25 -5 22 36 l-3 43 -50 2 c-80 4 -198 24 -226 39 -15 7 -38 27 -52 43
-47 57 -52 104 -52 531 l0 395 205 6 c113 4 250 12 305 19 244 29 436 119 579
271 206 218 275 594 159 874 -91 221 -282 365 -568 427 -96 21 -125 22 -675
24 -316 1 -596 5 -622 9 l-48 6 0 -40 c0 -46 -1 -45 105 -56 76 -7 144 -41
168 -82 13 -22 21 -67 27 -150 11 -135 13 -1156 3 -1166 -3 -4 -16 19 -29 51
-59 151 -95 245 -129 332 -20 52 -58 151 -85 220 -27 69 -70 179 -95 245 -48
122 -205 526 -234 602 -20 51 -24 56 -56 59 -21 2 -28 -5 -45 -43z m1531 -78
c148 -30 281 -128 340 -251 104 -219 111 -617 14 -855 -53 -131 -129 -216
-241 -269 -109 -53 -177 -63 -404 -64 l-205 -1 0 625 c0 661 3 709 46 765 29
36 75 57 144 66 75 9 219 2 306 -16z m-1589 -448 c34 -91 270 -722 315 -842
56 -148 73 -197 73 -212 0 -11 -76 -13 -426 -13 l-426 0 6 26 c4 15 44 122 88
238 45 116 94 245 109 286 15 41 42 111 59 155 17 44 42 109 55 145 13 36 38
101 55 145 17 44 37 95 43 113 5 17 13 32 16 32 3 0 18 -33 33 -73z"/>
<path d="M3325 606 c-70 -31 -123 -122 -112 -193 8 -50 54 -114 97 -135 42
-22 130 -23 168 -4 57 30 102 101 102 162 0 127 -140 221 -255 170z"/>
</g>
</svg>
